<svg width="492" height="479" viewBox="0 0 492 479" fill="none" xmlns="http://www.w3.org/2000/svg">
<mask id="mask0_4_113" style="mask-type:luminance" maskUnits="userSpaceOnUse" x="387" y="209" width="13" height="12">
<path d="M387.374 209.34H399.057V220.704H387.374V209.34Z" fill="white"/>
</mask>
<g mask="url(#mask0_4_113)">
<path d="M387.682 218.312C387.682 218.629 387.811 218.933 388.042 219.157C388.273 219.382 388.585 219.508 388.911 219.508H396.29C396.616 219.508 396.929 219.382 397.16 219.157C397.39 218.933 397.52 218.629 397.52 218.312V213.228C397.52 212.91 397.39 212.606 397.16 212.382C396.929 212.157 396.616 212.031 396.29 212.031H393.523C392.428 212.031 392.601 210.536 390.929 210.536H388.911C388.585 210.536 388.273 210.662 388.042 210.887C387.811 211.111 387.682 211.415 387.682 211.732V218.312Z" fill="#226699"/>
<path d="M397.623 213.228H395.606C393.934 213.228 393.951 214.723 392.855 214.723H390.088C389.409 214.723 388.803 215.259 388.734 215.919L388.583 217.078L388.421 218.312L388.415 218.311C388.38 218.492 388.209 218.61 388.016 218.61C387.818 218.61 387.676 218.458 387.685 218.268C387.685 218.283 387.682 218.297 387.682 218.312C387.682 218.597 387.788 218.873 387.98 219.089C388.172 219.305 388.437 219.447 388.727 219.49C388.788 219.502 388.849 219.508 388.911 219.508H396.905C397.584 219.508 398.191 218.972 398.259 218.312L398.728 214.424C398.797 213.763 398.302 213.228 397.623 213.228Z" fill="#55ACEE"/>
</g>
<rect x="65.1773" y="197.976" width="17.8315" height="17.3453" fill="#D9D9D9"/>
<path d="M243.681 184.121H258.06C259.308 184.121 260.209 185 260.209 185.956V198.632C260.208 199.588 259.308 200.467 258.06 200.467H243.681C242.434 200.467 241.533 199.588 241.533 198.632V185.956C241.533 185.06 242.325 184.231 243.452 184.131L243.681 184.121Z" fill="url(#paint0_linear_4_113)"/>
<path d="M243.681 184.121H258.06C259.308 184.121 260.209 185 260.209 185.956V198.632C260.208 199.588 259.308 200.467 258.06 200.467H243.681C242.434 200.467 241.533 199.588 241.533 198.632V185.956C241.533 185.06 242.325 184.231 243.452 184.131L243.681 184.121Z" fill="url(#paint1_radial_4_113)" fill-opacity="0.2"/>
<path d="M243.681 184.121H258.06C259.308 184.121 260.209 185 260.209 185.956V198.632C260.208 199.588 259.308 200.467 258.06 200.467H243.681C242.434 200.467 241.533 199.588 241.533 198.632V185.956C241.533 185.06 242.325 184.231 243.452 184.131L243.681 184.121Z" stroke="url(#paint2_linear_4_113)"/>
<mask id="mask1_4_113" style="mask-type:luminance" maskUnits="userSpaceOnUse" x="296" y="180" width="13" height="12">
<path d="M296.987 180.032H308.67V191.397H296.987V180.032Z" fill="white"/>
</mask>
<g mask="url(#mask1_4_113)">
</g>
<rect x="197.991" y="227.882" width="17.8315" height="17.3453" fill="#D9D9D9"/>
<mask id="mask2_4_113" style="mask-type:luminance" maskUnits="userSpaceOnUse" x="200" y="230" width="14" height="13">
<path d="M200.451 230.274H213.363V242.834H200.451V230.274Z" fill="white"/>
</mask>
<g mask="url(#mask2_4_113)">
<path d="M201.13 240.19C201.13 240.541 201.274 240.877 201.529 241.125C201.783 241.373 202.129 241.512 202.49 241.512H210.645C211.005 241.512 211.351 241.373 211.606 241.125C211.861 240.877 212.004 240.541 212.004 240.19V234.571C212.004 234.22 211.861 233.884 211.606 233.636C211.351 233.388 211.005 233.249 210.645 233.249H207.587C206.376 233.249 206.567 231.596 204.72 231.596H202.49C202.129 231.596 201.783 231.735 201.529 231.983C201.274 232.231 201.13 232.568 201.13 232.918V240.19Z" fill="#226699"/>
<path d="M212.118 234.571H209.888C208.041 234.571 208.059 236.224 206.849 236.224H203.79C203.04 236.224 202.37 236.816 202.293 237.546L202.126 238.826L201.948 240.19L201.941 240.189C201.902 240.39 201.713 240.52 201.499 240.52C201.281 240.52 201.124 240.352 201.135 240.142C201.134 240.158 201.13 240.174 201.13 240.19C201.131 240.506 201.248 240.811 201.46 241.05C201.672 241.288 201.965 241.445 202.286 241.492C202.353 241.506 202.421 241.513 202.49 241.512H211.324C212.075 241.512 212.746 240.92 212.822 240.19L213.34 235.893C213.416 235.163 212.869 234.571 212.118 234.571Z" fill="#55ACEE"/>
</g>
<path d="M199.836 251.208H233.654V284.104H199.836V251.208Z" fill="#D9D9D9"/>
<g clip-path="url(#clip0_4_113)">
<mask id="mask3_4_113" style="mask-type:luminance" maskUnits="userSpaceOnUse" x="241" y="263" width="12" height="13">
<path d="M241.033 263.768H252.716V275.133H241.033V263.768Z" fill="white"/>
</mask>
<g mask="url(#mask3_4_113)">
<path d="M241.34 272.74C241.34 273.057 241.47 273.362 241.701 273.586C241.931 273.81 242.244 273.936 242.57 273.936H249.949C250.275 273.936 250.588 273.81 250.818 273.586C251.049 273.362 251.178 273.057 251.178 272.74V267.656C251.178 267.339 251.049 267.035 250.818 266.81C250.588 266.586 250.275 266.46 249.949 266.46H247.182C246.087 266.46 246.259 264.965 244.588 264.965H242.57C242.244 264.965 241.931 265.091 241.701 265.315C241.47 265.539 241.34 265.843 241.34 266.161V272.74Z" fill="#226699"/>
<path d="M251.282 267.656H249.264C247.592 267.656 247.609 269.151 246.514 269.151H243.747C243.068 269.151 242.462 269.687 242.392 270.348L242.241 271.506L242.08 272.74L242.074 272.739C242.039 272.921 241.867 273.038 241.674 273.038C241.477 273.038 241.334 272.887 241.344 272.696C241.343 272.711 241.34 272.725 241.34 272.74C241.341 273.026 241.447 273.302 241.638 273.518C241.83 273.734 242.095 273.876 242.386 273.918C242.446 273.931 242.508 273.937 242.57 273.936H250.564C251.243 273.936 251.849 273.401 251.918 272.74L252.387 268.852C252.456 268.192 251.961 267.656 251.282 267.656Z" fill="#55ACEE"/>
</g>
</g>
<rect x="217.053" y="227.882" width="17.8315" height="17.3453" fill="#D9D9D9"/>
<path d="M227.238 240.284H220.127V241.364C220.127 241.364 220.2 242.037 220.783 242.037H228.278C228.278 242.037 227.238 241.652 227.238 241.149V240.284Z" stroke="#231F20" stroke-width="0.9" stroke-linecap="round" stroke-linejoin="round"/>
<path d="M228.291 242.072C228.291 242.072 229.524 242.082 229.524 240.285V232.522C229.524 232.522 229.735 231.518 230.61 231.518H222.313C222.313 231.518 221.397 231.803 221.397 232.594V240.282" stroke="#231F20" stroke-width="0.9" stroke-linecap="round" stroke-linejoin="round"/>
<path d="M229.524 233.272H231.81V232.578C231.81 232.578 231.712 231.47 230.667 231.47" stroke="#231F20" stroke-width="0.9" stroke-linecap="round" stroke-linejoin="round"/>
<path d="M222.921 237.279H227.746" stroke="#231F20" stroke-width="0.9" stroke-linecap="round" stroke-linejoin="round"/>
<path d="M222.921 238.281H227.746" stroke="#231F20" stroke-width="0.9" stroke-linecap="round" stroke-linejoin="round"/>
<path d="M222.921 235.276H227.746" stroke="#231F20" stroke-width="0.9" stroke-linecap="round" stroke-linejoin="round"/>
<path d="M222.921 234.274H227.746" stroke="#231F20" stroke-width="0.9" stroke-linecap="round" stroke-linejoin="round"/>
<path d="M222.921 236.278H227.746" stroke="#231F20" stroke-width="0.9" stroke-linecap="round" stroke-linejoin="round"/>
<path d="M226.209 239.854L224.546 240.213C224.186 240.291 223.865 239.978 223.945 239.628L224.314 238.011C224.369 237.771 224.493 237.552 224.45 237.594L231.117 231.109C231.596 230.642 232.016 230.642 232.275 230.894L233.525 232.11C233.784 232.362 233.784 232.77 233.304 233.237L226.637 239.722C226.68 239.68 226.455 239.8 226.209 239.854Z" fill="#FFA500"/>
<path d="M232.792 233.735L233.525 233.022C233.784 232.77 233.784 232.362 233.525 232.11L232.275 230.894C232.016 230.642 231.596 230.642 231.338 230.894L230.604 231.607L232.792 233.735Z" fill="#FD3C4F"/>
<path d="M232.927 234.096L232.393 234.615C232.134 234.867 231.715 234.867 231.456 234.615L229.688 232.896C229.429 232.644 229.429 232.236 229.688 231.984L230.222 231.465C230.481 231.213 230.9 231.213 231.159 231.465L232.927 233.184C233.186 233.436 233.186 233.844 232.927 234.096Z" fill="#A7B3C7"/>
<path d="M226.603 239.697L224.421 237.723C224.375 237.815 224.337 237.91 224.314 238.011L223.945 239.628C223.865 239.978 224.186 240.291 224.546 240.213L226.209 239.854C226.349 239.823 226.481 239.769 226.603 239.697Z" fill="#FFCE29"/>
<path d="M224.091 238.99L223.945 239.628C223.865 239.978 224.186 240.291 224.546 240.213L225.202 240.071L224.091 238.99Z" fill="#9C34C2"/>
<path opacity="0.15" d="M233.468 232.208L233.321 232.068C233.1 232.098 232.886 232.189 232.716 232.351L226.301 238.453C226.284 238.47 226.259 238.485 226.23 238.496H226.23C226.225 238.498 226.22 238.501 226.214 238.502C226.209 238.504 226.203 238.506 226.197 238.508L225.26 238.706C224.745 238.814 224.404 239.262 224.433 239.748C224.54 239.825 224.68 239.864 224.828 239.833L226.428 239.495C226.665 239.444 226.882 239.331 227.053 239.168L231.737 234.713C231.956 234.778 232.205 234.731 232.379 234.565L232.892 234.077C233.066 233.912 233.115 233.675 233.047 233.467L233.468 233.066C233.717 232.829 233.717 232.445 233.468 232.208Z" fill="black"/>
<path opacity="0.3" d="M226.23 235.862C226.446 236.072 226.729 236.177 227.012 236.177C227.294 236.177 227.577 236.072 227.793 235.862L232.119 231.653C232.295 231.482 232.396 231.266 232.428 231.042L232.275 230.894C232.016 230.642 231.596 230.642 231.337 230.894L230.906 231.313C230.674 231.236 230.407 231.285 230.221 231.465L229.688 231.984C229.503 232.164 229.452 232.423 229.532 232.649L226.23 235.862Z" fill="white"/>
<path d="M231.049 232.233L230.487 232.78" stroke="white" stroke-width="3" stroke-miterlimit="10" stroke-linecap="round"/>
<rect x="236.729" y="227.882" width="17.8315" height="17.3453" fill="#D9D9D9"/>
<path d="M461.16 118.098L370.373 29.9057H41.5044C38.6555 29.9214 35.9279 31.0292 33.9135 32.9888C31.899 34.9483 30.7601 37.6015 30.744 40.3727V438.119C30.744 443.89 35.6015 448.586 41.5044 448.586H450.399C456.302 448.586 461.16 443.89 461.16 438.119V337.486C461.16 334.706 460.025 332.04 458.004 330.074C455.983 328.108 453.242 327.004 450.384 327.004C447.526 327.004 444.785 328.108 442.764 330.074C440.744 332.04 439.608 334.706 439.608 337.486V278.512H439.731C439.731 278.751 439.608 278.931 439.608 279.14C439.608 281.92 440.744 284.586 442.764 286.552C444.785 288.517 447.526 289.622 450.384 289.622C453.242 289.622 455.983 288.517 458.004 286.552C460.025 284.586 461.16 281.92 461.16 279.14C461.16 278.901 461.037 278.721 461.037 278.512H461.16V233.653H461.006C461.037 233.384 461.16 233.145 461.16 232.906C461.16 230.126 460.025 227.46 458.004 225.494C455.983 223.528 453.242 222.424 450.384 222.424C447.526 222.424 444.785 223.528 442.764 225.494C440.744 227.46 439.608 230.126 439.608 232.906C439.608 233.175 439.731 233.384 439.762 233.653H439.639V193.909H439.67L439.639 194.088C439.635 196.864 440.765 199.528 442.78 201.494C444.795 203.459 447.53 204.566 450.384 204.57C453.238 204.574 455.976 203.475 457.997 201.515C460.018 199.555 461.156 196.894 461.16 194.118L461.129 193.939H461.16V118.098Z" fill="black"/>
<path d="M52.2648 427.652V50.8397H361.457L439.639 126.77V427.652H52.2648Z" fill="#4A5FA0"/>
<path d="M116.243 29.9057V125.036C116.243 130.778 121.101 135.503 127.003 135.503H359.121C365.023 135.503 369.881 130.778 369.881 125.036V29.9057H116.243Z" fill="black"/>
<path d="M137.764 50.8397H348.36V114.569H137.764V50.8397Z" fill="#B3B2B1"/>
<path d="M369.881 448.586V256.232C369.857 253.458 368.711 250.805 366.692 248.846C364.672 246.888 361.942 245.781 359.09 245.765H126.973C124.124 245.781 121.396 246.889 119.382 248.848C117.367 250.808 116.228 253.461 116.212 256.232V448.586H369.881Z" fill="black"/>
<path d="M137.764 266.729H348.36V427.652H137.764V266.729Z" fill="#B3B2B1"/>
<path d="M263.261 63.5496H333.388V101.859H263.261V63.5496Z" fill="#949494"/>
<path d="M322.32 305.248C322.32 310.989 317.493 315.715 311.56 315.715H179.36C173.458 315.715 168.6 311.019 168.6 305.248C168.6 299.476 173.458 294.781 179.36 294.781H311.56C317.493 294.781 322.32 299.506 322.32 305.248ZM322.32 347.953C322.32 353.695 317.493 358.42 311.56 358.42H179.36C173.458 358.42 168.6 353.725 168.6 347.953C168.6 342.181 173.458 337.486 179.36 337.486H311.56C314.413 337.486 317.15 338.589 319.168 340.552C321.186 342.515 322.32 345.177 322.32 347.953ZM322.32 390.658C322.32 396.4 317.493 401.125 311.56 401.125H179.36C173.458 401.125 168.6 396.43 168.6 390.658C168.6 384.886 173.458 380.191 179.36 380.191H311.56C314.413 380.191 317.15 381.294 319.168 383.257C321.186 385.22 322.32 387.882 322.32 390.658Z" fill="black"/>
<path d="M80.9797 401.095C80.9797 403.078 80.1699 404.98 78.7285 406.382C77.2871 407.784 75.3321 408.572 73.2937 408.572C71.2552 408.572 69.3003 407.784 67.8589 406.382C66.4174 404.98 65.6077 403.078 65.6077 401.095V78.981C65.6077 76.9981 66.4174 75.0965 67.8589 73.6944C69.3003 72.2922 71.2552 71.5046 73.2937 71.5046C75.3321 71.5046 77.2871 72.2922 78.7285 73.6944C80.1699 75.0965 80.9797 76.9981 80.9797 78.981V401.095Z" fill="white"/>
<defs>
<linearGradient id="paint0_linear_4_113" x1="246.498" y1="183.621" x2="248.439" y2="201.234" gradientUnits="userSpaceOnUse">
<stop stop-color="white"/>
<stop offset="1" stop-color="#EBEBEB"/>
</linearGradient>
<radialGradient id="paint1_radial_4_113" cx="0" cy="0" r="1" gradientUnits="userSpaceOnUse" gradientTransform="translate(247.318 188.138) rotate(52.9015) scale(17.2163 15.5302)">
<stop offset="0.177083" stop-color="white"/>
<stop offset="1" stop-color="#B8B8B8"/>
</radialGradient>
<linearGradient id="paint2_linear_4_113" x1="247.387" y1="183.621" x2="249.453" y2="201.205" gradientUnits="userSpaceOnUse">
<stop stop-color="#BBBBBB"/>
<stop offset="1" stop-color="#888888"/>
</linearGradient>
<clipPath id="clip0_4_113">
<rect width="11.6827" height="11.3642" fill="white" transform="translate(240.418 263.768)"/>
</clipPath>
</defs>
</svg>
